<svg width="64" height="64" viewBox="0 0 64 64" fill="none" xmlns="http://www.w3.org/2000/svg">
<path d="M11.2662 30.0104C13.7844 20.3529 22.2586 13.8878 31.6152 13.6126V7.35918C19.5407 7.63862 8.5691 15.954 5.32258 28.41C2.89602 37.7288 5.35172 47.2126 11.0748 54.0461C12.544 52.5431 13.8301 50.8665 15.1121 49.1941C11.1081 43.9398 9.46815 36.9201 11.2662 30.0104Z" fill="url(#paint0_linear_2614_696)"/>
<path d="M26.2431 1.69392C20.8156 5.03868 19.0841 12.2236 22.3723 17.7445C25.6604 23.2655 32.7237 25.0268 38.1512 21.682C43.5787 18.3373 45.3102 11.1524 42.022 5.63142C38.7339 0.110451 31.6706 -1.65083 26.2431 1.69392Z" fill="#187735"/>
<path d="M5.53609 42.306C0.108581 45.6507 -1.62289 52.8356 1.66525 58.3566C4.95339 63.8776 12.0166 65.6388 17.4441 62.2941C22.8717 58.9493 24.6031 51.7645 21.315 46.2435C18.0268 40.7225 10.9636 38.9612 5.53609 42.306Z" fill="#0F05FF"/>
<path d="M62.3355 46.2386C59.0474 40.7176 51.9841 38.9563 46.5566 42.3011C41.1291 45.6458 39.3976 52.8307 42.6858 58.3517C45.9739 63.8727 53.0371 65.6339 58.4647 62.2892C63.8922 58.9444 65.6237 51.7596 62.3355 46.2386Z" fill="#8E00F6"/>
<path d="M52.7086 47.8224C52.0634 47.5556 51.4016 47.3228 50.7274 47.1322C46.9148 53.4873 40.0346 57.7423 32.1931 57.7423C24.3515 57.7423 17.821 53.6947 13.9543 47.6022C12.4934 49.1687 11.0949 50.803 9.83789 52.5389C14.9158 59.4867 23.0445 64 32.1931 64C42.4903 64 51.489 58.28 56.3089 49.8081C55.1975 48.9994 53.9655 48.3474 52.7086 47.8308V47.8224Z" fill="url(#paint1_linear_2614_696)"/>
<path d="M32.2363 7.35433V13.6078C44.1985 13.6078 53.9297 23.5066 53.9297 35.6747C53.9297 40.7596 52.2274 45.4423 49.3763 49.1765C51.0495 49.3162 52.6894 49.8794 54.2169 50.5568C54.6539 50.7515 55.0868 50.9632 55.5155 51.1834C58.3958 46.7251 60.0773 41.3947 60.0773 35.6747C60.0773 20.0602 47.5865 7.35433 32.2363 7.35433Z" fill="url(#paint2_linear_2614_696)"/>
<defs>
<linearGradient id="paint0_linear_2614_696" x1="-9.68029" y1="61.0263" x2="38.784" y2="4.0278" gradientUnits="userSpaceOnUse">
<stop offset="0.49" stop-color="white" stop-opacity="0"/>
<stop offset="0.52" stop-color="#D4E5D9" stop-opacity="0.19"/>
<stop offset="0.57" stop-color="#90BE9E" stop-opacity="0.48"/>
<stop offset="0.63" stop-color="#5B9E70" stop-opacity="0.71"/>
<stop offset="0.69" stop-color="#36884F" stop-opacity="0.87"/>
<stop offset="0.75" stop-color="#1F7B3B" stop-opacity="0.97"/>
<stop offset="0.82" stop-color="#187735"/>
</linearGradient>
<linearGradient id="paint1_linear_2614_696" x1="61.7946" y1="55.5661" x2="6.11272" y2="55.5661" gradientUnits="userSpaceOnUse">
<stop offset="0.4" stop-color="#FEFEFF" stop-opacity="0"/>
<stop offset="0.46" stop-color="#BFBDFF" stop-opacity="0.26"/>
<stop offset="0.52" stop-color="#8985FF" stop-opacity="0.49"/>
<stop offset="0.58" stop-color="#5D57FF" stop-opacity="0.67"/>
<stop offset="0.63" stop-color="#3B33FF" stop-opacity="0.81"/>
<stop offset="0.68" stop-color="#2319FF" stop-opacity="0.92"/>
<stop offset="0.72" stop-color="#140AFF" stop-opacity="0.98"/>
<stop offset="0.76" stop-color="#0F05FF"/>
</linearGradient>
<linearGradient id="paint2_linear_2614_696" x1="46.009" y1="21.8257" x2="47.5507" y2="45.7607" gradientUnits="userSpaceOnUse">
<stop offset="0.06" stop-color="white" stop-opacity="0"/>
<stop offset="0.16" stop-color="#E6C7FD" stop-opacity="0.22"/>
<stop offset="0.29" stop-color="#CB8BFA" stop-opacity="0.45"/>
<stop offset="0.42" stop-color="#B559F9" stop-opacity="0.65"/>
<stop offset="0.54" stop-color="#A432F7" stop-opacity="0.8"/>
<stop offset="0.65" stop-color="#9816F6" stop-opacity="0.91"/>
<stop offset="0.74" stop-color="#9005F6" stop-opacity="0.98"/>
<stop offset="0.82" stop-color="#8E00F6"/>
</linearGradient>
</defs>
</svg>
