<svg width="24" height="24" viewBox="0 0 24 24" fill="none" xmlns="http://www.w3.org/2000/svg">
<path fill-rule="evenodd" clip-rule="evenodd" d="M5.41463 3C4.77423 3 4.16006 3.2544 3.70723 3.70723C3.2544 4.16006 3 4.77423 3 5.41463C3 6.05503 3.2544 6.66921 3.70723 7.12204C4.16006 7.57487 4.77423 7.82927 5.41463 7.82927C6.05503 7.82927 6.66921 7.57487 7.12204 7.12204C7.57487 6.66921 7.82927 6.05503 7.82927 5.41463C7.82927 4.77423 7.57487 4.16006 7.12204 3.70723C6.66921 3.2544 6.05503 3 5.41463 3ZM4.31707 5.41463C4.31707 5.12354 4.43271 4.84437 4.63854 4.63854C4.84437 4.43271 5.12354 4.31707 5.41463 4.31707C5.70573 4.31707 5.98489 4.43271 6.19073 4.63854C6.39656 4.84437 6.5122 5.12354 6.5122 5.41463C6.5122 5.70573 6.39656 5.98489 6.19073 6.19073C5.98489 6.39656 5.70573 6.5122 5.41463 6.5122C5.12354 6.5122 4.84437 6.39656 4.63854 6.19073C4.43271 5.98489 4.31707 5.70573 4.31707 5.41463ZM3 8.92683C3 8.75217 3.06938 8.58467 3.19288 8.46117C3.31638 8.33767 3.48388 8.26829 3.65854 8.26829H7.17073C7.34539 8.26829 7.51289 8.33767 7.63639 8.46117C7.75989 8.58467 7.82927 8.75217 7.82927 8.92683V20.3415C7.82927 20.5161 7.75989 20.6836 7.63639 20.8071C7.51289 20.9306 7.34539 21 7.17073 21H3.65854C3.48388 21 3.31638 20.9306 3.19288 20.8071C3.06938 20.6836 3 20.5161 3 20.3415V8.92683ZM4.31707 9.58537V19.6829H6.5122V9.58537H4.31707ZM9.14634 8.92683C9.14634 8.75217 9.21572 8.58467 9.33922 8.46117C9.46272 8.33767 9.63022 8.26829 9.80488 8.26829H13.3171C13.4917 8.26829 13.6592 8.33767 13.7827 8.46117C13.9062 8.58467 13.9756 8.75217 13.9756 8.92683V9.3079L14.3576 9.14371C15.0161 8.86227 15.7148 8.68598 16.428 8.62127C18.8646 8.4 21 10.3141 21 12.7727V20.3415C21 20.5161 20.9306 20.6836 20.8071 20.8071C20.6836 20.9306 20.5161 21 20.3415 21H16.8293C16.6546 21 16.4871 20.9306 16.3636 20.8071C16.2401 20.6836 16.1707 20.5161 16.1707 20.3415V14.1951C16.1707 13.904 16.0551 13.6249 15.8493 13.419C15.6434 13.2132 15.3643 13.0976 15.0732 13.0976C14.7821 13.0976 14.5029 13.2132 14.2971 13.419C14.0912 13.6249 13.9756 13.904 13.9756 14.1951V20.3415C13.9756 20.5161 13.9062 20.6836 13.7827 20.8071C13.6592 20.9306 13.4917 21 13.3171 21H9.80488C9.63022 21 9.46272 20.9306 9.33922 20.8071C9.21572 20.6836 9.14634 20.5161 9.14634 20.3415V8.92683ZM10.4634 9.58537V19.6829H12.6585V14.1951C12.6585 13.5547 12.9129 12.9405 13.3658 12.4877C13.8186 12.0349 14.4328 11.7805 15.0732 11.7805C15.7136 11.7805 16.3277 12.0349 16.7806 12.4877C17.2334 12.9405 17.4878 13.5547 17.4878 14.1951V19.6829H19.6829V12.7727C19.6829 11.1009 18.2245 9.78029 16.5483 9.93307C15.9724 9.98546 15.4083 10.1277 14.8765 10.3545L13.577 10.9121C13.4767 10.9552 13.3674 10.9726 13.2587 10.963C13.1501 10.9533 13.0455 10.9168 12.9545 10.8567C12.8634 10.7967 12.7887 10.7149 12.737 10.6188C12.6854 10.5227 12.6584 10.4153 12.6585 10.3062V9.58537H10.4634Z" fill="#696969"/>
</svg>
