<svg width="24" height="24" viewBox="0 0 20 20" fill="none" xmlns="http://www.w3.org/2000/svg">
<path id="Vector" fill-rule="evenodd" clip-rule="evenodd" d="M2.5 -0.25C1.77065 -0.25 1.07118 0.0397314 0.555456 0.555456C0.0397314 1.07118 -0.25 1.77065 -0.25 2.5C-0.25 3.22935 0.0397314 3.92882 0.555456 4.44454C1.07118 4.96027 1.77065 5.25 2.5 5.25C3.22935 5.25 3.92882 4.96027 4.44454 4.44454C4.96027 3.92882 5.25 3.22935 5.25 2.5C5.25 1.77065 4.96027 1.07118 4.44454 0.555456C3.92882 0.0397314 3.22935 -0.25 2.5 -0.25ZM1.25 2.5C1.25 2.16848 1.3817 1.85054 1.61612 1.61612C1.85054 1.3817 2.16848 1.25 2.5 1.25C2.83152 1.25 3.14946 1.3817 3.38388 1.61612C3.6183 1.85054 3.75 2.16848 3.75 2.5C3.75 2.83152 3.6183 3.14946 3.38388 3.38388C3.14946 3.6183 2.83152 3.75 2.5 3.75C2.16848 3.75 1.85054 3.6183 1.61612 3.38388C1.3817 3.14946 1.25 2.83152 1.25 2.5ZM-0.25 6.5C-0.25 6.30109 -0.170982 6.11032 -0.0303302 5.96967C0.110322 5.82902 0.301088 5.75 0.5 5.75H4.5C4.69891 5.75 4.88968 5.82902 5.03033 5.96967C5.17098 6.11032 5.25 6.30109 5.25 6.5V19.5C5.25 19.6989 5.17098 19.8897 5.03033 20.0303C4.88968 20.171 4.69891 20.25 4.5 20.25H0.5C0.301088 20.25 0.110322 20.171 -0.0303302 20.0303C-0.170982 19.8897 -0.25 19.6989 -0.25 19.5V6.5ZM1.25 7.25V18.75H3.75V7.25H1.25ZM6.75 6.5C6.75 6.30109 6.82902 6.11032 6.96967 5.96967C7.11032 5.82902 7.30109 5.75 7.5 5.75H11.5C11.6989 5.75 11.8897 5.82902 12.0303 5.96967C12.171 6.11032 12.25 6.30109 12.25 6.5V6.934L12.685 6.747C13.435 6.42648 14.2307 6.2257 15.043 6.152C17.818 5.9 20.25 8.08 20.25 10.88V19.5C20.25 19.6989 20.171 19.8897 20.0303 20.0303C19.8897 20.171 19.6989 20.25 19.5 20.25H15.5C15.3011 20.25 15.1103 20.171 14.9697 20.0303C14.829 19.8897 14.75 19.6989 14.75 19.5V12.5C14.75 12.1685 14.6183 11.8505 14.3839 11.6161C14.1495 11.3817 13.8315 11.25 13.5 11.25C13.1685 11.25 12.8505 11.3817 12.6161 11.6161C12.3817 11.8505 12.25 12.1685 12.25 12.5V19.5C12.25 19.6989 12.171 19.8897 12.0303 20.0303C11.8897 20.171 11.6989 20.25 11.5 20.25H7.5C7.30109 20.25 7.11032 20.171 6.96967 20.0303C6.82902 19.8897 6.75 19.6989 6.75 19.5V6.5ZM8.25 7.25V18.75H10.75V12.5C10.75 11.7707 11.0397 11.0712 11.5555 10.5555C12.0712 10.0397 12.7707 9.75 13.5 9.75C14.2293 9.75 14.9288 10.0397 15.4445 10.5555C15.9603 11.0712 16.25 11.7707 16.25 12.5V18.75H18.75V10.88C18.75 8.976 17.089 7.472 15.18 7.646C14.5242 7.70567 13.8817 7.86763 13.276 8.126L11.796 8.761C11.6818 8.81003 11.5573 8.82994 11.4336 8.81893C11.3098 8.80793 11.1907 8.76635 11.087 8.69794C10.9833 8.62953 10.8982 8.53643 10.8394 8.427C10.7806 8.31757 10.7499 8.19524 10.75 8.071V7.25H8.25Z" fill="#696969"/>
</svg>
