<svg width="163" height="40" viewBox="0 0 163 40" fill="none" xmlns="http://www.w3.org/2000/svg">
<rect width="162" height="40.0077" transform="translate(0.499939 -0.00390625)" fill="white"/>
<path d="M0.499939 16.4176H3.98772V19.1894C5.8097 17.2021 8.36047 16.0515 11.4839 16.0515C18.043 16.0515 20.854 18.9802 20.854 26.3018V39.4285H17.3662V26.3018C17.3662 21.7519 15.284 19.5032 11.4839 19.5032C6.85083 19.3986 3.98772 22.0134 3.98772 27.1909V39.4285H0.499939V16.4176Z" fill="#1D1D1D"/>
<path d="M55.836 -0.00390625H59.3238V19.1893C61.1458 17.202 63.6965 16.0514 66.8199 16.0514C73.379 16.0514 76.1901 18.9801 76.1901 26.3017V39.4284H72.7023V26.3017C72.7023 21.7519 70.62 19.5031 66.8199 19.5031C62.1869 19.5031 59.3238 22.1179 59.3238 27.1908V39.4284H55.836V-0.00390625Z" fill="#1D1D1D"/>
<path d="M81.1356 27.9753C81.1356 21.4382 86.4974 16.0515 93.0044 16.0515C96.4922 16.0515 99.5635 17.6727 101.646 20.183V16.4176H105.134V39.5331H101.646V35.7677C99.5635 38.3302 96.4922 40.0038 93.0044 40.0038C86.4974 40.0038 81.1356 34.4079 81.1356 27.9753ZM101.438 27.9753C101.438 23.3209 97.4292 19.5032 92.9003 19.5032C88.3714 19.5032 84.7795 23.3209 84.7795 27.9753C84.7795 32.6298 88.2673 36.5521 92.9003 36.5521C97.5333 36.5521 101.438 32.5252 101.438 27.9753Z" fill="#1D1D1D"/>
<path d="M115.91 19.5555C117.784 17.4113 120.491 16.0515 123.666 16.0515V19.5032C119.606 19.5032 115.91 22.0134 115.91 26.7202V39.4285H112.422V16.4176H115.91V19.5555Z" fill="#1D1D1D"/>
<path d="M162.5 26.3018V39.4285H159.012V26.3018C159.012 21.7519 157.294 19.5032 153.911 19.5032C149.694 19.5032 147.039 21.8565 147.039 27.4524V39.4285H143.551V26.3018C143.551 21.7519 141.834 19.5032 138.45 19.5032C134.233 19.5032 131.578 21.8565 131.578 27.4524V39.4285H128.091V16.4176H131.578V19.1894C133.244 17.2021 135.587 16.0515 138.45 16.0515C142.458 16.0515 144.957 17.359 146.154 20.4968C147.768 17.6727 150.475 16.0515 153.911 16.0515C159.845 16.0515 162.5 18.9802 162.5 26.3018Z" fill="#1D1D1D"/>
<path d="M30.3574 25.4353C31.4072 21.4589 34.9401 18.797 38.8409 18.6837V16.1089C33.807 16.2239 29.233 19.6477 27.8795 24.7763C26.8679 28.6132 27.8917 32.5181 30.2776 35.3317C30.8901 34.7129 31.4263 34.0225 31.9608 33.3339C30.2915 31.1706 29.6078 28.2803 30.3574 25.4353Z" fill="url(#paint0_linear_2133_1678)"/>
<path d="M36.6014 13.7763C34.3387 15.1535 33.6168 18.1118 34.9876 20.385C36.3585 22.6582 39.3031 23.3834 41.5658 22.0062C43.8286 20.629 44.5504 17.6707 43.1796 15.3975C41.8088 13.1243 38.8641 12.3991 36.6014 13.7763Z" fill="#187735"/>
<path d="M27.9681 30.4977C25.7054 31.8749 24.9835 34.8332 26.3543 37.1064C27.7252 39.3796 30.6698 40.1048 32.9325 38.7276C35.1953 37.3505 35.9171 34.3922 34.5463 32.119C33.1755 29.8458 30.2308 29.1206 27.9681 30.4977Z" fill="#0F05FF"/>
<path d="M51.6474 32.117C50.2765 29.8438 47.3319 29.1186 45.0692 30.4958C42.8064 31.873 42.0846 34.8313 43.4554 37.1044C44.8262 39.3776 47.7709 40.1028 50.0336 38.7257C52.2963 37.3485 53.0182 34.3902 51.6474 32.117Z" fill="#8E00F6"/>
<path d="M47.6349 32.7693C47.3659 32.6594 47.09 32.5636 46.8089 32.4851C45.2194 35.1017 42.3511 36.8537 39.082 36.8537C35.8128 36.8537 33.0903 35.1871 31.4783 32.6786C30.8692 33.3236 30.2862 33.9965 29.7621 34.7112C31.8791 37.5719 35.268 39.4302 39.082 39.4302C43.3749 39.4302 47.1264 37.0751 49.1358 33.5868C48.6725 33.2539 48.1589 32.9854 47.6349 32.7727V32.7693Z" fill="url(#paint1_linear_2133_1678)"/>
<path d="M39.1 16.1069V18.6817C44.087 18.6817 48.144 22.7574 48.144 27.7675C48.144 29.8612 47.4343 31.7892 46.2457 33.3268C46.9432 33.3843 47.6269 33.6161 48.2637 33.8951C48.4459 33.9752 48.6264 34.0624 48.8051 34.1531C50.0059 32.3174 50.7069 30.1227 50.7069 27.7675C50.7069 21.3384 45.4995 16.1069 39.1 16.1069Z" fill="url(#paint2_linear_2133_1678)"/>
<defs>
<linearGradient id="paint0_linear_2133_1678" x1="21.6248" y1="38.2057" x2="41.5381" y2="14.4925" gradientUnits="userSpaceOnUse">
<stop offset="0.49" stop-color="white" stop-opacity="0"/>
<stop offset="0.52" stop-color="#D4E5D9" stop-opacity="0.19"/>
<stop offset="0.57" stop-color="#90BE9E" stop-opacity="0.48"/>
<stop offset="0.63" stop-color="#5B9E70" stop-opacity="0.71"/>
<stop offset="0.69" stop-color="#36884F" stop-opacity="0.87"/>
<stop offset="0.75" stop-color="#1F7B3B" stop-opacity="0.97"/>
<stop offset="0.82" stop-color="#187735"/>
</linearGradient>
<linearGradient id="paint1_linear_2133_1678" x1="51.4228" y1="35.9577" x2="28.2091" y2="35.9577" gradientUnits="userSpaceOnUse">
<stop offset="0.4" stop-color="#FEFEFF" stop-opacity="0"/>
<stop offset="0.46" stop-color="#BFBDFF" stop-opacity="0.26"/>
<stop offset="0.52" stop-color="#8985FF" stop-opacity="0.49"/>
<stop offset="0.58" stop-color="#5D57FF" stop-opacity="0.67"/>
<stop offset="0.63" stop-color="#3B33FF" stop-opacity="0.81"/>
<stop offset="0.68" stop-color="#2319FF" stop-opacity="0.92"/>
<stop offset="0.72" stop-color="#140AFF" stop-opacity="0.98"/>
<stop offset="0.76" stop-color="#0F05FF"/>
</linearGradient>
<linearGradient id="paint2_linear_2133_1678" x1="44.8419" y1="22.0654" x2="45.4688" y2="31.9213" gradientUnits="userSpaceOnUse">
<stop offset="0.06" stop-color="white" stop-opacity="0"/>
<stop offset="0.16" stop-color="#E6C7FD" stop-opacity="0.22"/>
<stop offset="0.29" stop-color="#CB8BFA" stop-opacity="0.45"/>
<stop offset="0.42" stop-color="#B559F9" stop-opacity="0.65"/>
<stop offset="0.54" stop-color="#A432F7" stop-opacity="0.8"/>
<stop offset="0.65" stop-color="#9816F6" stop-opacity="0.91"/>
<stop offset="0.74" stop-color="#9005F6" stop-opacity="0.98"/>
<stop offset="0.82" stop-color="#8E00F6"/>
</linearGradient>
</defs>
</svg>
